%TF.GenerationSoftware,KiCad,Pcbnew,(6.0.6)*%
%TF.CreationDate,2022-11-26T23:59:25-08:00*%
%TF.ProjectId,AS-OPEN9BTN-UNOSHLD-01,41532d4f-5045-44e3-9942-544e2d554e4f,rev?*%
%TF.SameCoordinates,Original*%
%TF.FileFunction,Soldermask,Top*%
%TF.FilePolarity,Negative*%
%FSLAX46Y46*%
G04 Gerber Fmt 4.6, Leading zero omitted, Abs format (unit mm)*
G04 Created by KiCad (PCBNEW (6.0.6)) date 2022-11-26 23:59:25*
%MOMM*%
%LPD*%
G01*
G04 APERTURE LIST*
G04 Aperture macros list*
%AMRoundRect*
0 Rectangle with rounded corners*
0 $1 Rounding radius*
0 $2 $3 $4 $5 $6 $7 $8 $9 X,Y pos of 4 corners*
0 Add a 4 corners polygon primitive as box body*
4,1,4,$2,$3,$4,$5,$6,$7,$8,$9,$2,$3,0*
0 Add four circle primitives for the rounded corners*
1,1,$1+$1,$2,$3*
1,1,$1+$1,$4,$5*
1,1,$1+$1,$6,$7*
1,1,$1+$1,$8,$9*
0 Add four rect primitives between the rounded corners*
20,1,$1+$1,$2,$3,$4,$5,0*
20,1,$1+$1,$4,$5,$6,$7,0*
20,1,$1+$1,$6,$7,$8,$9,0*
20,1,$1+$1,$8,$9,$2,$3,0*%
G04 Aperture macros list end*
%ADD10C,2.000000*%
%ADD11RoundRect,0.250000X-0.600000X-0.725000X0.600000X-0.725000X0.600000X0.725000X-0.600000X0.725000X0*%
%ADD12O,1.700000X1.950000*%
%ADD13O,1.600000X1.600000*%
%ADD14R,1.600000X1.600000*%
G04 APERTURE END LIST*
D10*
%TO.C,SW9*%
X75817800Y-73873800D03*
X69317800Y-73873800D03*
X69317800Y-78373800D03*
X75817800Y-78373800D03*
%TD*%
%TO.C,SW8*%
X56920200Y-79411000D03*
X50420200Y-79411000D03*
X50420200Y-83911000D03*
X56920200Y-83911000D03*
%TD*%
%TO.C,SW7*%
X56869400Y-96683000D03*
X50369400Y-96683000D03*
X50369400Y-101183000D03*
X56869400Y-101183000D03*
%TD*%
%TO.C,SW6*%
X46912600Y-88478800D03*
X40412600Y-88478800D03*
X40412600Y-92978800D03*
X46912600Y-92978800D03*
%TD*%
%TO.C,SW5*%
X66750000Y-88453400D03*
X60250000Y-88453400D03*
X60250000Y-92953400D03*
X66750000Y-92953400D03*
%TD*%
%TO.C,SW4*%
X85800000Y-84440200D03*
X79300000Y-84440200D03*
X79300000Y-88940200D03*
X85800000Y-88940200D03*
%TD*%
%TO.C,SW3*%
X98194000Y-84582000D03*
X91694000Y-84582000D03*
X91694000Y-89082000D03*
X98194000Y-89082000D03*
%TD*%
%TO.C,SW2*%
X97990800Y-97307400D03*
X91490800Y-97307400D03*
X91490800Y-101807400D03*
X97990800Y-101807400D03*
%TD*%
%TO.C,SW1*%
X85825400Y-97191000D03*
X79325400Y-97191000D03*
X79325400Y-101691000D03*
X85825400Y-101691000D03*
%TD*%
D11*
%TO.C,J1*%
X85835800Y-69426600D03*
D12*
X88335800Y-69426600D03*
X90835800Y-69426600D03*
X93335800Y-69426600D03*
%TD*%
D13*
%TO.C,A1*%
X87905400Y-115595400D03*
X85365400Y-115595400D03*
X82825400Y-115595400D03*
X80285400Y-115595400D03*
X77745400Y-115595400D03*
X75205400Y-115595400D03*
X72665400Y-115595400D03*
X70125400Y-115595400D03*
X67585400Y-115595400D03*
X65045400Y-115595400D03*
X60985400Y-115595400D03*
X58445400Y-115595400D03*
X55905400Y-115595400D03*
X53365400Y-115595400D03*
X50825400Y-115595400D03*
X48285400Y-115595400D03*
X45745400Y-115595400D03*
X43205400Y-115595400D03*
X43205400Y-67335400D03*
X45745400Y-67335400D03*
X48285400Y-67335400D03*
X50825400Y-67335400D03*
X53365400Y-67335400D03*
X55905400Y-67335400D03*
X60985400Y-67335400D03*
X63525400Y-67335400D03*
X66065400Y-67335400D03*
X68605400Y-67335400D03*
X71145400Y-67335400D03*
X73685400Y-67335400D03*
X76225400Y-67335400D03*
D14*
X78765400Y-67335400D03*
%TD*%
M02*
