M48
; DRILL file {KiCad (6.0.6)} date Sat Nov 26 23:59:37 2022
; FORMAT={-:-/ absolute / inch / decimal}
; #@! TF.CreationDate,2022-11-26T23:59:37-08:00
; #@! TF.GenerationSoftware,Kicad,Pcbnew,(6.0.6)
; #@! TF.FileFunction,Plated,1,2,PTH
FMAT,2
INCH
; #@! TA.AperFunction,Plated,PTH,ViaDrill
T1C0.0157
; #@! TA.AperFunction,Plated,PTH,ComponentDrill
T2C0.0374
; #@! TA.AperFunction,Plated,PTH,ComponentDrill
T3C0.0394
; #@! TA.AperFunction,Plated,PTH,ComponentDrill
T4C0.0433
%
G90
G05
T1
X2.761Y-4.087
X3.362Y-3.654
T2
X3.3794Y-2.7333
X3.4778Y-2.7333
X3.5762Y-2.7333
X3.6746Y-2.7333
T3
X1.701Y-2.651
X1.701Y-4.551
X1.801Y-2.651
X1.801Y-4.551
X1.901Y-2.651
X1.901Y-4.551
X2.001Y-2.651
X2.001Y-4.551
X2.101Y-2.651
X2.101Y-4.551
X2.201Y-2.651
X2.201Y-4.551
X2.301Y-4.551
X2.401Y-2.651
X2.401Y-4.551
X2.501Y-2.651
X2.5608Y-4.551
X2.601Y-2.651
X2.6608Y-4.551
X2.701Y-2.651
X2.7608Y-4.551
X2.801Y-2.651
X2.8608Y-4.551
X2.901Y-2.651
X2.9608Y-4.551
X3.001Y-2.651
X3.0608Y-4.551
X3.101Y-2.651
X3.1608Y-4.551
X3.2608Y-4.551
X3.3608Y-4.551
X3.4608Y-4.551
T4
X1.591Y-3.4834
X1.591Y-3.6606
X1.847Y-3.4834
X1.847Y-3.6606
X1.983Y-3.8064
X1.983Y-3.9836
X1.985Y-3.1264
X1.985Y-3.3036
X2.239Y-3.8064
X2.239Y-3.9836
X2.241Y-3.1264
X2.241Y-3.3036
X2.372Y-3.4824
X2.372Y-3.6596
X2.628Y-3.4824
X2.628Y-3.6596
X2.729Y-2.9084
X2.729Y-3.0856
X2.985Y-2.9084
X2.985Y-3.0856
X3.122Y-3.3244
X3.122Y-3.5016
X3.123Y-3.8264
X3.123Y-4.0036
X3.378Y-3.3244
X3.378Y-3.5016
X3.379Y-3.8264
X3.379Y-4.0036
X3.602Y-3.831
X3.602Y-4.0082
X3.61Y-3.33
X3.61Y-3.5072
X3.8579Y-3.831
X3.8579Y-4.0082
X3.8659Y-3.33
X3.8659Y-3.5072
T0
M30
