%FSLAX45Y45*%
G04 Gerber Fmt 4.5, Leading zero omitted, Abs format (unit mm)*
G04 Created by KiCad (PCBNEW (6.0.6)) date 2022-11-26 23:59:41*
%MOMM*%
%LPD*%
G01*
G04 APERTURE LIST*
%TA.AperFunction,Profile*%
%ADD10C,0.100000*%
%TD*%
%ADD11C,0.200000*%
G04 APERTURE END LIST*
D10*
X4030980Y-6728460D02*
X4033520Y-6441440D01*
X3776980Y-6982460D02*
X4030980Y-6728460D01*
X3771900Y-10269220D02*
X3776980Y-6982460D01*
X4030980Y-10525760D02*
X3771900Y-10269220D01*
X4030980Y-11666220D02*
X4030980Y-10525760D01*
X4218940Y-11854180D02*
X4030980Y-11666220D01*
X10706100Y-11851640D02*
X4218940Y-11854180D01*
X10706100Y-10901680D02*
X10706100Y-11851640D01*
X11346180Y-10901680D02*
X10706100Y-10901680D01*
X11343640Y-9682480D02*
X11346180Y-10901680D01*
X10706100Y-9682480D02*
X11343640Y-9682480D01*
X10706100Y-7724140D02*
X10706100Y-9682480D01*
X10899140Y-7724140D02*
X10706100Y-7724140D01*
X10899140Y-6761480D02*
X10899140Y-7724140D01*
X10708640Y-6758940D02*
X10899140Y-6761480D01*
X10708640Y-6438900D02*
X10708640Y-6758940D01*
X4033520Y-6441440D02*
X10708640Y-6438900D01*
D11*
X4024519Y-12169656D02*
X4024519Y-11969656D01*
X4072138Y-11969656D01*
X4100709Y-11979180D01*
X4119757Y-11998228D01*
X4129281Y-12017275D01*
X4138805Y-12055370D01*
X4138805Y-12083942D01*
X4129281Y-12122037D01*
X4119757Y-12141085D01*
X4100709Y-12160132D01*
X4072138Y-12169656D01*
X4024519Y-12169656D01*
X4224519Y-12169656D02*
X4224519Y-12036323D01*
X4224519Y-12074418D02*
X4234043Y-12055370D01*
X4243567Y-12045847D01*
X4262614Y-12036323D01*
X4281662Y-12036323D01*
X4348329Y-12169656D02*
X4348329Y-12036323D01*
X4348329Y-11969656D02*
X4338805Y-11979180D01*
X4348329Y-11988704D01*
X4357852Y-11979180D01*
X4348329Y-11969656D01*
X4348329Y-11988704D01*
X4472138Y-12169656D02*
X4453090Y-12160132D01*
X4443567Y-12141085D01*
X4443567Y-11969656D01*
X4576900Y-12169656D02*
X4557852Y-12160132D01*
X4548329Y-12141085D01*
X4548329Y-11969656D01*
X4805471Y-12169656D02*
X4805471Y-11969656D01*
X4872138Y-12112513D01*
X4938805Y-11969656D01*
X4938805Y-12169656D01*
X5119757Y-12169656D02*
X5119757Y-12064894D01*
X5110233Y-12045847D01*
X5091186Y-12036323D01*
X5053090Y-12036323D01*
X5034043Y-12045847D01*
X5119757Y-12160132D02*
X5100710Y-12169656D01*
X5053090Y-12169656D01*
X5034043Y-12160132D01*
X5024519Y-12141085D01*
X5024519Y-12122037D01*
X5034043Y-12102989D01*
X5053090Y-12093466D01*
X5100710Y-12093466D01*
X5119757Y-12083942D01*
X5214995Y-12036323D02*
X5214995Y-12236323D01*
X5214995Y-12045847D02*
X5234043Y-12036323D01*
X5272138Y-12036323D01*
X5291186Y-12045847D01*
X5300710Y-12055370D01*
X5310233Y-12074418D01*
X5310233Y-12131561D01*
X5300710Y-12150608D01*
X5291186Y-12160132D01*
X5272138Y-12169656D01*
X5234043Y-12169656D01*
X5214995Y-12160132D01*
X5395948Y-12150608D02*
X5405471Y-12160132D01*
X5395948Y-12169656D01*
X5386424Y-12160132D01*
X5395948Y-12150608D01*
X5395948Y-12169656D01*
X5395948Y-12045847D02*
X5405471Y-12055370D01*
X5395948Y-12064894D01*
X5386424Y-12055370D01*
X5395948Y-12045847D01*
X5395948Y-12064894D01*
M02*
